<?xml version="1.0" encoding="UTF-8"?>
<!DOCTYPE svg PUBLIC "-//W3C//DTD SVG 1.1//EN" "http://www.w3.org/Graphics/SVG/1.1/DTD/svg11.dtd">
<svg xmlns="http://www.w3.org/2000/svg" version="1.1" width="375px" height="376px" style="shape-rendering:geometricPrecision; text-rendering:geometricPrecision; image-rendering:optimizeQuality; fill-rule:evenodd; clip-rule:evenodd" xmlns:xlink="http://www.w3.org/1999/xlink">
<g><path style="opacity:0.186" fill="#aed7d7" d="M 285.5,127.5 C 285.167,127.5 284.833,127.5 284.5,127.5C 274.833,127.5 265.167,127.5 255.5,127.5C 256.531,126.751 257.698,126.085 259,125.5C 265.667,126.833 272.333,126.833 279,125.5C 281.277,126.117 283.444,126.784 285.5,127.5 Z"/></g>
<g><path style="opacity:1" fill="#098a8a" d="M 255.5,127.5 C 265.167,127.5 274.833,127.5 284.5,127.5C 284.5,133.833 284.5,140.167 284.5,146.5C 281.287,146.19 278.287,146.523 275.5,147.5C 275.5,147.833 275.5,148.167 275.5,148.5C 275.5,152.167 275.5,155.833 275.5,159.5C 276.833,161.833 276.833,164.167 275.5,166.5C 268.833,166.5 262.167,166.5 255.5,166.5C 255.5,173.167 255.5,179.833 255.5,186.5C 248.833,186.5 242.167,186.5 235.5,186.5C 235.5,192.833 235.5,199.167 235.5,205.5C 233.5,205.5 231.5,205.5 229.5,205.5C 229.918,204.778 230.584,204.278 231.5,204C 230.207,203.51 228.873,203.343 227.5,203.5C 227.726,200.751 227.393,198.084 226.5,195.5C 228.357,192.111 230.857,191.778 234,194.5C 234.622,189.737 234.455,188.737 233.5,191.5C 232.167,191.5 230.833,191.5 229.5,191.5C 229.801,183.953 233.301,178.619 240,175.5C 240.617,174.551 240.451,173.718 239.5,173C 236.649,173.172 234.149,174.339 232,176.5C 229.96,179.71 228.127,183.043 226.5,186.5C 225.264,185.754 223.93,185.421 222.5,185.5C 222.878,180.92 224.878,177.087 228.5,174C 224.848,173.501 221.182,173.335 217.5,173.5C 217.343,172.127 217.51,170.793 218,169.5C 218.333,169.833 218.667,170.167 219,170.5C 224.19,170.177 229.023,169.177 233.5,167.5C 234.496,167.586 235.329,167.252 236,166.5C 236.5,160.175 236.666,153.842 236.5,147.5C 243.022,147.823 249.355,147.49 255.5,146.5C 254.493,140.131 254.493,133.797 255.5,127.5 Z"/></g>
<g><path style="opacity:0.676" fill="#81bcbc" d="M 284.5,127.5 C 284.833,127.5 285.167,127.5 285.5,127.5C 285.402,134.325 286.069,141.325 287.5,148.5C 283.452,148.605 279.452,148.272 275.5,147.5C 278.287,146.523 281.287,146.19 284.5,146.5C 284.5,140.167 284.5,133.833 284.5,127.5 Z"/></g>
<g><path style="opacity:0.694" fill="#8ac5c6" d="M 117.5,127.5 C 107.833,127.5 98.1667,127.5 88.5,127.5C 88.653,133.869 88.3197,140.203 87.5,146.5C 91.0419,146.187 94.3752,146.521 97.5,147.5C 93.8333,147.5 90.1667,147.5 86.5,147.5C 86.6296,140.532 86.963,133.698 87.5,127C 97.6753,126.175 107.675,126.342 117.5,127.5 Z"/></g>
<g><path style="opacity:0.571" fill="#8bbcc1" d="M 137.5,147.5 C 130.646,147.824 123.979,147.491 117.5,146.5C 124.306,145.384 130.973,145.717 137.5,147.5 Z"/></g>
<g><path style="opacity:0.539" fill="#80b8b8" d="M 255.5,146.5 C 249.355,147.49 243.022,147.823 236.5,147.5C 236.666,153.842 236.5,160.175 236,166.5C 235.329,167.252 234.496,167.586 233.5,167.5C 227.833,167.5 222.167,167.5 216.5,167.5C 216.5,170.833 216.5,174.167 216.5,177.5C 216.167,177.5 215.833,177.5 215.5,177.5C 215.5,173.833 215.5,170.167 215.5,166.5C 222.218,165.782 228.885,165.449 235.5,165.5C 234.363,159.148 234.363,152.815 235.5,146.5C 242.145,145.429 248.811,145.429 255.5,146.5 Z"/></g>
<g><path style="opacity:0.098" fill="#bacfd6" d="M 275.5,148.5 C 276.478,148.811 277.145,149.478 277.5,150.5C 276.911,153.64 276.244,156.64 275.5,159.5C 275.5,155.833 275.5,152.167 275.5,148.5 Z"/></g>
<g><path style="opacity:0.075" fill="#afd7da" d="M 148.5,166.5 C 145.167,166.5 141.833,166.5 138.5,166.5C 138.369,165.761 138.536,165.094 139,164.5C 142.27,165.132 145.437,165.799 148.5,166.5 Z"/></g>
<g><path style="opacity:0.163" fill="#abdada" d="M 275.5,166.5 C 269.355,167.49 263.022,167.823 256.5,167.5C 256.823,174.022 256.49,180.355 255.5,186.5C 255.5,179.833 255.5,173.167 255.5,166.5C 262.167,166.5 268.833,166.5 275.5,166.5 Z"/></g>
<g><path style="opacity:0.151" fill="#aadbdb" d="M 97.5,166.5 C 104.167,166.5 110.833,166.5 117.5,166.5C 117.5,173.167 117.5,179.833 117.5,186.5C 116.51,180.355 116.177,174.022 116.5,167.5C 110.759,168.247 105.093,168.58 99.5,168.5C 98.4777,168.145 97.811,167.478 97.5,166.5 Z"/></g>
<g><path style="opacity:0.494" fill="#89c3c1" d="M 157.5,186.5 C 156.51,180.355 156.177,174.022 156.5,167.5C 154.901,167.768 153.568,167.434 152.5,166.5C 153.498,166.413 154.665,166.08 156,165.5C 157.044,166.623 157.71,167.956 158,169.5C 158.366,175.175 158.2,180.841 157.5,186.5 Z"/></g>
<g><path style="opacity:1" fill="#0f8b89" d="M 117.5,127.5 C 118.482,133.768 118.482,140.101 117.5,146.5C 123.979,147.491 130.646,147.824 137.5,147.5C 138.11,153.939 138.443,160.272 138.5,166.5C 141.833,166.5 145.167,166.5 148.5,166.5C 149.833,166.5 151.167,166.5 152.5,166.5C 153.568,167.434 154.901,167.768 156.5,167.5C 156.177,174.022 156.51,180.355 157.5,186.5C 157.833,186.5 158.167,186.5 158.5,186.5C 164.167,186.5 169.833,186.5 175.5,186.5C 175.833,186.5 176.167,186.5 176.5,186.5C 176.5,193.167 176.5,199.833 176.5,206.5C 183.167,206.5 189.833,206.5 196.5,206.5C 196.5,199.833 196.5,193.167 196.5,186.5C 200.456,185.305 204.789,185.305 209.5,186.5C 211.833,186.5 214.167,186.5 216.5,186.5C 216.5,183.5 216.5,180.5 216.5,177.5C 216.5,174.167 216.5,170.833 216.5,167.5C 222.167,167.5 227.833,167.5 233.5,167.5C 229.023,169.177 224.19,170.177 219,170.5C 218.667,170.167 218.333,169.833 218,169.5C 217.51,170.793 217.343,172.127 217.5,173.5C 221.182,173.335 224.848,173.501 228.5,174C 224.878,177.087 222.878,180.92 222.5,185.5C 223.93,185.421 225.264,185.754 226.5,186.5C 228.127,183.043 229.96,179.71 232,176.5C 234.149,174.339 236.649,173.172 239.5,173C 240.451,173.718 240.617,174.551 240,175.5C 233.301,178.619 229.801,183.953 229.5,191.5C 230.833,191.5 232.167,191.5 233.5,191.5C 234.455,188.737 234.622,189.737 234,194.5C 230.857,191.778 228.357,192.111 226.5,195.5C 227.393,198.084 227.726,200.751 227.5,203.5C 228.873,203.343 230.207,203.51 231.5,204C 230.584,204.278 229.918,204.778 229.5,205.5C 224.901,205.2 220.401,205.533 216,206.5C 215.5,212.825 215.334,219.158 215.5,225.5C 212.5,225.5 209.5,225.5 206.5,225.5C 206.5,226.833 206.5,228.167 206.5,229.5C 206.5,231.5 206.5,233.5 206.5,235.5C 203.167,235.5 199.833,235.5 196.5,235.5C 196.5,236.833 196.5,238.167 196.5,239.5C 196.5,241.833 196.5,244.167 196.5,246.5C 189.8,246.83 183.134,246.497 176.5,245.5C 175.181,243.468 175.181,241.468 176.5,239.5C 176.5,238.167 176.5,236.833 176.5,235.5C 173.167,235.5 169.833,235.5 166.5,235.5C 166.5,233.5 166.5,231.5 166.5,229.5C 166.5,228.167 166.5,226.833 166.5,225.5C 163.5,225.5 160.5,225.5 157.5,225.5C 157.666,219.158 157.5,212.825 157,206.5C 154.063,205.183 151.23,205.183 148.5,206.5C 144.935,207.787 141.268,207.787 137.5,206.5C 137.5,199.833 137.5,193.167 137.5,186.5C 131.167,186.5 124.833,186.5 118.5,186.5C 118.167,186.5 117.833,186.5 117.5,186.5C 117.5,179.833 117.5,173.167 117.5,166.5C 110.833,166.5 104.167,166.5 97.5,166.5C 96.5484,160.412 96.5484,154.078 97.5,147.5C 94.3752,146.521 91.0419,146.187 87.5,146.5C 88.3197,140.203 88.653,133.869 88.5,127.5C 98.1667,127.5 107.833,127.5 117.5,127.5 Z"/></g>
<g><path style="opacity:0.099" fill="#c2e5e4" d="M 175.5,186.5 C 169.833,186.5 164.167,186.5 158.5,186.5C 158.369,185.761 158.536,185.094 159,184.5C 164.6,185.146 170.1,185.813 175.5,186.5 Z"/></g>
<g><path style="opacity:0.41" fill="#a7e0de" d="M 215.5,177.5 C 215.833,177.5 216.167,177.5 216.5,177.5C 216.5,180.5 216.5,183.5 216.5,186.5C 214.167,186.5 211.833,186.5 209.5,186.5C 211.265,185.539 213.265,185.205 215.5,185.5C 215.316,182.523 215.316,179.856 215.5,177.5 Z"/></g>
<g><path style="opacity:0.381" fill="#9bccce" d="M 118.5,186.5 C 124.833,186.5 131.167,186.5 137.5,186.5C 137.5,193.167 137.5,199.833 137.5,206.5C 136.813,201.1 136.146,195.6 135.5,190C 135.957,189.586 136.291,189.086 136.5,188.5C 130.346,187.833 124.346,187.167 118.5,186.5 Z"/></g>
<g><path style="opacity:0.243" fill="#a0e0e0" d="M 176.5,186.5 C 177.49,192.645 177.823,198.978 177.5,205.5C 183.5,205.5 189.5,205.5 195.5,205.5C 195.177,198.978 195.51,192.645 196.5,186.5C 196.5,193.167 196.5,199.833 196.5,206.5C 189.833,206.5 183.167,206.5 176.5,206.5C 176.5,199.833 176.5,193.167 176.5,186.5 Z"/></g>
<g><path style="opacity:0.643" fill="#88bcbc" d="M 255.5,186.5 C 249.355,187.49 243.022,187.823 236.5,187.5C 236.5,193.833 236.5,200.167 236.5,206.5C 230.464,207.307 224.298,207.307 218,206.5C 217.308,207.025 216.808,207.692 216.5,208.5C 217.441,214.462 217.441,220.462 216.5,226.5C 212.572,225.976 209.239,226.976 206.5,229.5C 206.5,228.167 206.5,226.833 206.5,225.5C 209.5,225.5 212.5,225.5 215.5,225.5C 215.334,219.158 215.5,212.825 216,206.5C 220.401,205.533 224.901,205.2 229.5,205.5C 231.5,205.5 233.5,205.5 235.5,205.5C 235.5,199.167 235.5,192.833 235.5,186.5C 242.167,186.5 248.833,186.5 255.5,186.5 Z"/></g>
<g><path style="opacity:0.622" fill="#84babc" d="M 148.5,206.5 C 151.23,205.183 154.063,205.183 157,206.5C 157.5,212.825 157.666,219.158 157.5,225.5C 160.5,225.5 163.5,225.5 166.5,225.5C 166.5,226.833 166.5,228.167 166.5,229.5C 163.798,227.914 160.798,226.914 157.5,226.5C 155.57,220.553 155.237,214.553 156.5,208.5C 155.562,207.447 154.395,206.78 153,206.5C 151.437,207.722 149.937,207.722 148.5,206.5 Z"/></g>
<g><path style="opacity:0.378" fill="#8dc3c8" d="M 166.5,235.5 C 169.833,235.5 173.167,235.5 176.5,235.5C 176.5,236.833 176.5,238.167 176.5,239.5C 174.723,236.506 172.223,235.84 169,237.5C 168.005,236.934 167.172,236.267 166.5,235.5 Z"/></g>
<g><path style="opacity:0.314" fill="#a6d0d6" d="M 206.5,235.5 C 204.052,236.473 201.385,236.806 198.5,236.5C 198.715,238.179 198.048,239.179 196.5,239.5C 196.5,238.167 196.5,236.833 196.5,235.5C 199.833,235.5 203.167,235.5 206.5,235.5 Z"/></g>
</svg>
